<svg xmlns="http://www.w3.org/2000/svg" width="1180" height="986" viewBox="0 0 1180 986">
<style>
text { font-family: Menlo, Consolas, monospace; fill: #111; }
.title { font-size: 20px; font-weight: 700; }
.subtitle { font-size: 12px; fill: #444; }
.section { font-size: 15px; font-weight: 700; }
.label { font-size: 12px; }
.value { font-size: 12px; font-weight: 700; }
.axis { stroke: #333; stroke-width: 1; }
.grid { stroke: #d0d0d0; stroke-width: 1; stroke-dasharray: 3 3; }
</style>
<text x="40" y="34" class="title">Ranked propagation effects: metamcuncert</text>
<text x="40" y="56" class="subtitle">Saved from TriviaMC_difficulty_filtered_ablation_delegate_uncertainty_logit_gap_mean_diff_cross_layer_propagation.json. Red = negative delta, blue = positive delta. Asterisk = flagged by current script.</text>
<text x="40" y="72" class="section">Top overall |Δ projection|</text>
<line x1="210.0" y1="88" x2="210.0" y2="468" class="grid" />
<text x="210.0" y="82" text-anchor="middle" class="subtitle">-1.61</text>
<line x1="400.0" y1="88" x2="400.0" y2="468" class="grid" />
<text x="400.0" y="82" text-anchor="middle" class="subtitle">-0.81</text>
<line x1="590.0" y1="88" x2="590.0" y2="468" class="axis" />
<text x="590.0" y="82" text-anchor="middle" class="subtitle">+0.00</text>
<line x1="780.0" y1="88" x2="780.0" y2="468" class="grid" />
<text x="780.0" y="82" text-anchor="middle" class="subtitle">+0.81</text>
<line x1="970.0" y1="88" x2="970.0" y2="468" class="grid" />
<text x="970.0" y="82" text-anchor="middle" class="subtitle">+1.61</text>
<text x="198" y="102" text-anchor="end" class="label">L78 -&gt; L78</text>
<rect x="222.0" y="90" width="368.0" height="16" rx="3" fill="#c53030" opacity="0.88" />
<text x="214.0" y="102" text-anchor="end" class="value">-1.61*</text>
<text x="198" y="128" text-anchor="end" class="label">L38 -&gt; L78</text>
<rect x="275.8" y="116" width="314.2" height="16" rx="3" fill="#c53030" opacity="0.88" />
<text x="267.8" y="128" text-anchor="end" class="value">-1.38</text>
<text x="198" y="154" text-anchor="end" class="label">L37 -&gt; L77</text>
<rect x="277.7" y="142" width="312.3" height="16" rx="3" fill="#c53030" opacity="0.88" />
<text x="269.7" y="154" text-anchor="end" class="value">-1.37*</text>
<text x="198" y="180" text-anchor="end" class="label">L39 -&gt; L79</text>
<rect x="281.2" y="168" width="308.8" height="16" rx="3" fill="#c53030" opacity="0.88" />
<text x="273.2" y="180" text-anchor="end" class="value">-1.35</text>
<text x="198" y="206" text-anchor="end" class="label">L40 -&gt; L75</text>
<rect x="296.6" y="194" width="293.4" height="16" rx="3" fill="#c53030" opacity="0.88" />
<text x="288.6" y="206" text-anchor="end" class="value">-1.28</text>
<text x="198" y="232" text-anchor="end" class="label">L44 -&gt; L79</text>
<rect x="328.7" y="220" width="261.3" height="16" rx="3" fill="#c53030" opacity="0.88" />
<text x="320.7" y="232" text-anchor="end" class="value">-1.14</text>
<text x="198" y="258" text-anchor="end" class="label">L38 -&gt; L73</text>
<rect x="332.6" y="246" width="257.4" height="16" rx="3" fill="#c53030" opacity="0.88" />
<text x="324.6" y="258" text-anchor="end" class="value">-1.13</text>
<text x="198" y="284" text-anchor="end" class="label">L46 -&gt; L76</text>
<rect x="334.9" y="272" width="255.1" height="16" rx="3" fill="#c53030" opacity="0.88" />
<text x="326.9" y="284" text-anchor="end" class="value">-1.12</text>
<text x="198" y="310" text-anchor="end" class="label">L39 -&gt; L74</text>
<rect x="335.2" y="298" width="254.8" height="16" rx="3" fill="#c53030" opacity="0.88" />
<text x="327.2" y="310" text-anchor="end" class="value">-1.12</text>
<text x="198" y="336" text-anchor="end" class="label">L36 -&gt; L76</text>
<rect x="338.3" y="324" width="251.7" height="16" rx="3" fill="#c53030" opacity="0.88" />
<text x="330.3" y="336" text-anchor="end" class="value">-1.10*</text>
<text x="198" y="362" text-anchor="end" class="label">L37 -&gt; L72</text>
<rect x="339.3" y="350" width="250.7" height="16" rx="3" fill="#c53030" opacity="0.88" />
<text x="331.3" y="362" text-anchor="end" class="value">-1.10*</text>
<text x="198" y="388" text-anchor="end" class="label">L47 -&gt; L77</text>
<rect x="342.2" y="376" width="247.8" height="16" rx="3" fill="#c53030" opacity="0.88" />
<text x="334.2" y="388" text-anchor="end" class="value">-1.08</text>
<text x="198" y="414" text-anchor="end" class="label">L32 -&gt; L77</text>
<rect x="590.0" y="402" width="247.2" height="16" rx="3" fill="#2b6cb0" opacity="0.88" />
<text x="845.2" y="414" text-anchor="start" class="value">+1.08*</text>
<text x="198" y="440" text-anchor="end" class="label">L43 -&gt; L78</text>
<rect x="342.9" y="428" width="247.1" height="16" rx="3" fill="#c53030" opacity="0.88" />
<text x="334.9" y="440" text-anchor="end" class="value">-1.08</text>
<text x="198" y="466" text-anchor="end" class="label">L40 -&gt; L70</text>
<rect x="347.0" y="454" width="243.0" height="16" rx="3" fill="#c53030" opacity="0.88" />
<text x="339.0" y="466" text-anchor="end" class="value">-1.06*</text>
<text x="40" y="516" class="section">Top off-diagonal |Δ projection|</text>
<line x1="210.0" y1="532" x2="210.0" y2="912" class="grid" />
<text x="210.0" y="526" text-anchor="middle" class="subtitle">-1.38</text>
<line x1="400.0" y1="532" x2="400.0" y2="912" class="grid" />
<text x="400.0" y="526" text-anchor="middle" class="subtitle">-0.69</text>
<line x1="590.0" y1="532" x2="590.0" y2="912" class="axis" />
<text x="590.0" y="526" text-anchor="middle" class="subtitle">+0.00</text>
<line x1="780.0" y1="532" x2="780.0" y2="912" class="grid" />
<text x="780.0" y="526" text-anchor="middle" class="subtitle">+0.69</text>
<line x1="970.0" y1="532" x2="970.0" y2="912" class="grid" />
<text x="970.0" y="526" text-anchor="middle" class="subtitle">+1.38</text>
<text x="198" y="546" text-anchor="end" class="label">L38 -&gt; L78</text>
<rect x="222.0" y="534" width="368.0" height="16" rx="3" fill="#c53030" opacity="0.88" />
<text x="214.0" y="546" text-anchor="end" class="value">-1.38</text>
<text x="198" y="572" text-anchor="end" class="label">L37 -&gt; L77</text>
<rect x="224.3" y="560" width="365.7" height="16" rx="3" fill="#c53030" opacity="0.88" />
<text x="216.3" y="572" text-anchor="end" class="value">-1.37*</text>
<text x="198" y="598" text-anchor="end" class="label">L39 -&gt; L79</text>
<rect x="228.4" y="586" width="361.6" height="16" rx="3" fill="#c53030" opacity="0.88" />
<text x="220.4" y="598" text-anchor="end" class="value">-1.35</text>
<text x="198" y="624" text-anchor="end" class="label">L40 -&gt; L75</text>
<rect x="246.4" y="612" width="343.6" height="16" rx="3" fill="#c53030" opacity="0.88" />
<text x="238.4" y="624" text-anchor="end" class="value">-1.28</text>
<text x="198" y="650" text-anchor="end" class="label">L44 -&gt; L79</text>
<rect x="284.0" y="638" width="306.0" height="16" rx="3" fill="#c53030" opacity="0.88" />
<text x="276.0" y="650" text-anchor="end" class="value">-1.14</text>
<text x="198" y="676" text-anchor="end" class="label">L38 -&gt; L73</text>
<rect x="288.6" y="664" width="301.4" height="16" rx="3" fill="#c53030" opacity="0.88" />
<text x="280.6" y="676" text-anchor="end" class="value">-1.13</text>
<text x="198" y="702" text-anchor="end" class="label">L46 -&gt; L76</text>
<rect x="291.3" y="690" width="298.7" height="16" rx="3" fill="#c53030" opacity="0.88" />
<text x="283.3" y="702" text-anchor="end" class="value">-1.12</text>
<text x="198" y="728" text-anchor="end" class="label">L39 -&gt; L74</text>
<rect x="291.6" y="716" width="298.4" height="16" rx="3" fill="#c53030" opacity="0.88" />
<text x="283.6" y="728" text-anchor="end" class="value">-1.12</text>
<text x="198" y="754" text-anchor="end" class="label">L36 -&gt; L76</text>
<rect x="295.2" y="742" width="294.8" height="16" rx="3" fill="#c53030" opacity="0.88" />
<text x="287.2" y="754" text-anchor="end" class="value">-1.10*</text>
<text x="198" y="780" text-anchor="end" class="label">L37 -&gt; L72</text>
<rect x="296.4" y="768" width="293.6" height="16" rx="3" fill="#c53030" opacity="0.88" />
<text x="288.4" y="780" text-anchor="end" class="value">-1.10*</text>
<text x="198" y="806" text-anchor="end" class="label">L47 -&gt; L77</text>
<rect x="299.9" y="794" width="290.1" height="16" rx="3" fill="#c53030" opacity="0.88" />
<text x="291.9" y="806" text-anchor="end" class="value">-1.08</text>
<text x="198" y="832" text-anchor="end" class="label">L32 -&gt; L77</text>
<rect x="590.0" y="820" width="289.5" height="16" rx="3" fill="#2b6cb0" opacity="0.88" />
<text x="887.5" y="832" text-anchor="start" class="value">+1.08*</text>
<text x="198" y="858" text-anchor="end" class="label">L43 -&gt; L78</text>
<rect x="300.7" y="846" width="289.3" height="16" rx="3" fill="#c53030" opacity="0.88" />
<text x="292.7" y="858" text-anchor="end" class="value">-1.08</text>
<text x="198" y="884" text-anchor="end" class="label">L40 -&gt; L70</text>
<rect x="305.5" y="872" width="284.5" height="16" rx="3" fill="#c53030" opacity="0.88" />
<text x="297.5" y="884" text-anchor="end" class="value">-1.06*</text>
<text x="198" y="910" text-anchor="end" class="label">L48 -&gt; L78</text>
<rect x="308.0" y="898" width="282.0" height="16" rx="3" fill="#c53030" opacity="0.88" />
<text x="300.0" y="910" text-anchor="end" class="value">-1.05</text>
</svg>